<?xml version="1.0" encoding="utf-8"?>
<!-- Generator: Adobe Illustrator 22.1.0, SVG Export Plug-In . SVG Version: 6.00 Build 0)  -->
<svg version="1.1" id="Layer_1" xmlns="http://www.w3.org/2000/svg" xmlns:xlink="http://www.w3.org/1999/xlink" x="0px" y="0px"
	 viewBox="0 0 512 512" style="enable-background:new 0 0 512 512;" xml:space="preserve">
<g>
	<title>grafana</title>
	<g>
		<path d="M471.3,230.2c-0.8-7.5-2-16.3-4.4-25.9s-6.4-20-11.6-31.1c-5.6-10.8-12.4-22.4-21.6-33.2c-3.6-4.4-7.5-8.4-11.6-12.7
			c6.4-25.2-7.6-47.2-7.6-47.2c-24.3-1.5-39.5,7.6-45.1,11.6c-0.8-0.4-2-0.8-2.8-1.3c-4-1.5-8.4-3.1-12.7-4.8
			c-4.4-1.3-8.8-2.8-13.2-3.6c-4.4-1.3-9.2-2.1-14-2.9c-0.8,0-1.6-0.4-2.4-0.4C314,45.4,283.6,31,283.6,31
			c-34.7,22.3-41.5,52.3-41.5,52.3s0,0.8-0.4,1.6c-2,0.4-3.6,1.2-5.6,1.6c-2.4,0.8-5.2,1.6-7.6,2.8c-2.4,1.2-5.2,2-7.6,3.1
			c-5.2,2.4-10,4.8-15.2,7.6c-4.8,2.7-9.4,5.6-13.9,8.8c-0.8-0.4-1.3-0.8-1.3-0.8c-46.7-17.9-88.2,3.6-88.2,3.6
			c-3.6,49.9,18.8,81.1,23.2,86.6c-1.3,3.2-2.1,6-3.2,9.2c-3.6,11.3-6.1,22.9-7.6,34.7c-0.4,1.6-0.4,3.6-0.8,5.2
			C70.8,268.6,58,312.5,58,312.5c36,41.5,78.3,43.9,78.3,43.9c5.3,9.6,11.4,18.7,18.4,27.2c2.8,3.6,5.9,6.8,9.2,10.4
			c-13.2,37.5,2,69.1,2,69.1c40.4,1.6,66.7-17.6,72.3-22l11.9,3.6c12.4,3.2,25.2,5.2,37.6,5.6H304c18.8,27.1,52.4,30.7,52.4,30.7
			c23.5-25.2,25.1-49.6,25.1-55.1v-2.4c4.8-3.6,9.6-7.2,14.4-11.1c9.5-8.4,17.5-18.4,24.7-28.8c0.8-0.8,1.2-2,2-2.8
			c26.7,1.6,45.5-16.8,45.5-16.8c-4.4-27.9-20.4-41.5-23.5-43.9l-0.8-0.8l-0.4-0.4c0-1.5,0.4-3.1,0.4-5.2c0.4-3.1,0.4-5.9,0.4-9.2
			v-11.6c0-0.8,0-1.6-0.4-2.4l-0.8-4.8c-0.4-3.2-1.2-6-1.6-9.2c-2.8-11.8-7.3-23.1-13.6-33.5c-6.3-10.1-13.9-19.2-22.8-27.2
			c-8.6-7.5-18.2-13.8-28.7-18.3c-10-4.7-20.7-7.6-31.6-8.9c-5.2-0.8-10.8-0.8-16-0.8h-8c-2.8,0.4-5.6,0.8-8,1.3
			c-10.8,2-20.8,6-29.6,11.1c-8.8,5.2-16.3,12-22.7,19.6c-6.2,7.3-11.1,15.5-14.4,24.4c-3.1,8.4-5.2,17.6-5.6,25.9v9.6
			c0,1.2,0,2,0.4,3.2c1.3,12.3,5.8,24,13.2,33.9c4.8,6.4,10,11.2,16,15.2c6,4,12,6.8,18.4,8.8c6.4,2.1,12.4,2.8,17.9,2.4h8.4
			c0.8,0,1.5-0.4,2-0.4c0.8,0,1.2-0.4,2-0.4c1.2-0.4,2.8-0.8,4-1.2c2.4-0.8,4.8-2,7.3-2.8c2.3-1.3,4.3-2.4,5.9-3.7
			c0.4-0.4,1.3-0.8,1.6-1.2c2-1.5,2.3-4.4,0.8-6.4c-1.6-1.5-4-2.1-6-1.3c-0.4,0.4-0.8,0.4-1.5,0.8c-1.7,0.9-3.4,1.5-5.2,2.1
			c-2.1,0.4-4,1.2-6,1.5c-1.2,0-2,0.4-3.2,0.4h-6.7c0,0-0.4,0,0,0H308c-0.4,0-1.2,0-1.6-0.4c-4.4-0.8-9.2-2-13.6-4
			c-4.4-2.1-8.8-4.8-12.4-8.4c-4-3.6-7.2-7.5-10-12.4c-2.8-4.8-4.4-10-5.2-15.2c-0.4-2.8-0.8-5.6-0.4-8.4v-2.4c0,0.4,0,0,0,0v-2
			c0-1.6,0.4-2.8,0.8-4.4c2.1-12.4,8.1-23.7,17.2-32.4c2.4-2.4,4.8-4.4,7.6-5.9c2.8-2.1,5.6-3.7,8.4-4.8s6-2.4,9.2-3.2
			c3.2-0.8,6.4-1.5,9.6-1.5c1.6,0,3.2-0.4,4.8-0.4h3.1c0.4,0,0,0,0,0h1.6c10.7,0.9,21,4,30.4,9.2c12.7,7.2,23.5,17.9,29.9,31.1
			c3.2,6.4,5.6,13.6,6.8,21.2c0.4,2,0.4,3.6,0.8,5.6v10.4c0,2-0.4,4-0.4,6c-0.4,2-0.4,4-0.8,5.9l-1.3,6c-0.4,2-2.3,7.6-3.6,11.6
			c-1.2,4-6.7,14.8-11.6,21.2c-9.7,13.3-22.6,23.9-37.6,30.8c-7.5,3.2-15.2,6-23.1,7.2c-4,0.8-7.9,1.3-11.9,1.3h-6c0.4,0,0,0,0,0
			h-0.4c-2,0-4.4,0-6.4-0.4c-8.8-0.8-17.1-2.4-25.6-4.8c-8.4-2.4-16.3-5.6-23.9-9.6c-15.2-8.2-28.6-19.3-39.5-32.7
			c-5.2-6.8-10-14-14-21.5c-4-7.6-6.8-15.6-9.2-23.6c-2.3-8.1-3.7-16.3-4-24.7v-12.4c0-4,0.4-8.4,1.2-12.7c0.4-4.4,1.3-8.4,2-12.8
			c0.8-4.3,2.1-8.4,3.2-12.7c1.2-4.4,5.2-16.3,8.8-23.9c7.2-15.2,16.4-28.8,27.2-39.6c2.8-2.8,5.6-5.2,8.8-7.5
			c1.2-1.3,4-3.7,7.2-5.6c3.1-2,6.4-4,10-5.6c1.6-0.8,3.2-1.6,5.2-2.4c0.8-0.4,1.6-0.8,2.8-1.2c0.8-0.4,1.6-0.8,2.8-1.3
			c3.6-1.5,7.2-2.8,10.8-4c0.8-0.4,2.1-0.4,2.9-0.8s2-0.4,2.8-0.8s3.6-0.8,5.6-1.6c0.8-0.4,2-0.4,2.8-0.8c0.8,0,2-0.4,2.8-0.4
			s2-0.4,2.8-0.4l3.2-0.8c0.8,0,2-0.4,2.8-0.4c1.3,0,2-0.4,3.2-0.4c0.8,0,2.3-0.4,3.1-0.4s1.3,0,2-0.4h2.8c1.3,0,2.1,0,3.2-0.4h1.6
			c0,0,0.4,0,0,0h14.7c7.2,0.4,14.4,1.2,21.2,2.3c13.4,2.3,26.3,6.7,38.4,12.8c11.2,5.4,21.7,12.2,31.1,20.4
			c0.4,0.4,1.2,0.8,1.6,1.5c0.4,0.4,1.2,0.8,1.5,1.6c1.3,0.8,2.1,2,3.2,2.8c1.2,0.8,2,2,3.2,2.8c0.8,1.3,2,2.1,2.8,3.2
			c10.6,10.9,19.6,23.4,26.4,37.1c0.4,0.4,0.4,0.8,0.8,1.6c0.4,0.4,0.4,0.8,0.8,1.5c0.4,0.8,0.8,2.1,1.5,2.9c0.4,0.8,0.8,2,1.3,2.8
			c0.4,0.8,0.8,2,1.2,2.8c1.6,3.6,2.8,7.2,4,10.8c2,5.6,3.1,10.4,4.4,14.4c0.4,1.7,1.9,2.8,3.6,2.9c2,0,3.1-1.6,3.1-3.7
			c-0.4-4.8-0.4-10-0.8-16L471.3,230.2z"/>
	</g>
</g>
</svg>
