<svg version="1.1" viewBox="0.0 0.0 400.0 400.0" fill="none" stroke="none" stroke-linecap="square" stroke-miterlimit="10" xmlns:xlink="http://www.w3.org/1999/xlink" xmlns="http://www.w3.org/2000/svg"><clipPath id="p.0"><path d="m0 0l400.0 0l0 400.0l-400.0 0l0 -400.0z" clip-rule="nonzero"/></clipPath><g clip-path="url(#p.0)"><path fill="#000000" fill-opacity="0.0" d="m0 0l400.0 0l0 400.0l-400.0 0z" fill-rule="evenodd"/><path fill="#800080" d="m0.015748031 66.6785l0 0c0 -36.819717 29.84828 -66.668 66.668 -66.668l266.664 0l0 0c17.681458 0 34.638733 7.02393 47.141388 19.526606c12.502686 12.502676 19.526611 29.459944 19.526611 47.141396l0 266.664c0 36.819733 -29.848267 66.668 -66.668 66.668l-266.664 0c-36.819717 0 -66.668 -29.848267 -66.668 -66.668z" fill-rule="evenodd"/><path fill="#000000" fill-opacity="0.0" d="m378.01312 106.22835l51.18109 0l0 25.858261l-51.18109 0z" fill-rule="evenodd"/><path fill="#ffffff" d="m388.38812 120.34834l0 -3.359375l-1.25 0l0 -0.453125l3.015625 0l0 0.453125l-1.25 0l0 3.359375l-0.515625 0zm2.2702637 0l0 -3.8125l0.765625 0l0.90625 2.703125q0.125 0.375 0.171875 0.5625q0.078125 -0.203125 0.203125 -0.609375l0.921875 -2.65625l0.671875 0l0 3.8125l-0.484375 0l0 -3.1875l-1.109375 3.1875l-0.453125 0l-1.109375 -3.25l0 3.25l-0.484375 0z" fill-rule="nonzero"/><path fill="#000000" fill-opacity="0.0" d="m-5.2283463 296.74725c15.687664 -4.031067 60.924324 8.795715 94.125984 -24.18637c33.20166 -32.982056 69.53455 -177.98206 105.08399 -173.70602c35.549423 4.2760315 64.146545 179.44183 108.212585 199.36221c44.06607 19.92038 130.1531 -66.53325 156.18375 -79.839905" fill-rule="evenodd"/><path stroke="#ffffff" stroke-width="24.0" stroke-linejoin="round" stroke-linecap="butt" d="m-5.2283463 296.74725c15.687664 -4.031067 60.924324 8.795715 94.125984 -24.18637c33.20166 -32.982056 69.53455 -177.98206 105.08399 -173.70602c35.549423 4.2760315 64.146545 179.44183 108.212585 199.36221c44.06607 19.92038 130.1531 -66.53325 156.18375 -79.839905" fill-rule="evenodd"/><path fill="#000000" fill-opacity="0.0" d="m-34.53018 140.54068c19.448818 13.333328 73.80971 71.111115 116.69291 80.0c42.8832 8.8888855 95.68154 -9.84996 140.6063 -26.666672c44.92476 -16.816696 107.45189 -61.86133 128.94225 -74.23359" fill-rule="evenodd"/><path stroke="#ffff00" stroke-width="24.0" stroke-linejoin="round" stroke-linecap="butt" d="m-34.53018 140.54068c19.448818 13.333328 73.80971 71.111115 116.69291 80.0c42.8832 8.8888855 95.68154 -9.84996 140.6063 -26.666672c44.92476 -16.816696 107.45189 -61.86133 128.94225 -74.23359" fill-rule="evenodd"/><path fill="#ffffff" d="m117.36537 196.03674l21.259842 10.047241l-19.433075 41.16536l-21.259842 -10.047241z" fill-rule="evenodd"/><path fill="#ffff00" d="m330.37802 93.61883l53.96454 6.0131226l-19.980286 50.90026z" fill-rule="evenodd"/></g></svg>